<svg width="60" height="60" viewBox="0 0 60 60" fill="none" xmlns="http://www.w3.org/2000/svg">
<path d="M29.9995 22.5006V32.5005M29.9995 42.5005H30.0245M26.5378 9.72988L5.97548 45.2465C4.83496 47.2165 4.26471 48.2015 4.34898 49.0098C4.42251 49.715 4.79193 50.3558 5.36533 50.7725C6.02271 51.2505 7.16088 51.2505 9.43718 51.2505H50.5615C52.838 51.2505 53.976 51.2505 54.6335 50.7725C55.2068 50.3558 55.5763 49.715 55.6498 49.0098C55.734 48.2015 55.1638 47.2165 54.0233 45.2465L33.461 9.72988C32.3248 7.76698 31.7565 6.78553 31.0153 6.45588C30.3685 6.16835 29.6303 6.16835 28.9838 6.45588C28.2423 6.78553 27.674 7.76698 26.5378 9.72988Z" stroke="black" stroke-width="5" stroke-linecap="round" stroke-linejoin="round"/>
</svg>
