<svg width="60" height="60" viewBox="0 0 60 60" fill="none" xmlns="http://www.w3.org/2000/svg">
<path fill-rule="evenodd" clip-rule="evenodd" d="M40 26C40 33.732 33.732 40 26 40C18.268 40 12 33.732 12 26C12 18.268 18.268 12 26 12C33.732 12 40 18.268 40 26ZM37.2354 40.0636C34.156 42.5272 30.25 44 26 44C16.0589 44 8 35.9411 8 26C8 16.0589 16.0589 8 26 8C35.9411 8 44 16.0589 44 26C44 30.25 42.5272 34.156 40.0636 37.2354L51.4144 48.5856C52.1952 49.3668 52.1952 50.6332 51.4144 51.4144C50.6332 52.1952 49.3668 52.1952 48.5856 51.4144L37.2354 40.0636Z" fill="black"/>
</svg>
